<mxfile host="app.diagrams.net" agent="Mozilla/5.0 (Windows NT 10.0; Win64; x64) AppleWebKit/537.36 (KHTML, like Gecko) Chrome/131.0.0.0 Safari/537.36 Edg/131.0.0.0" version="25.0.3">
  <diagram name="第 1 页" id="EnHYbxaocB5N-LMYTVEP">
    <mxGraphModel dx="784" dy="1133" grid="1" gridSize="10" guides="1" tooltips="1" connect="1" arrows="1" fold="1" page="1" pageScale="1" pageWidth="5000" pageHeight="5000" math="1" shadow="0">
      <root>
        <mxCell id="0" />
        <mxCell id="1" parent="0" />
        <mxCell id="i_-GHyOLZH2gLH-0PidL-22" style="edgeStyle=orthogonalEdgeStyle;rounded=0;orthogonalLoop=1;jettySize=auto;html=1;fontSize=16;" edge="1" parent="1" source="i_-GHyOLZH2gLH-0PidL-1" target="i_-GHyOLZH2gLH-0PidL-2">
          <mxGeometry relative="1" as="geometry" />
        </mxCell>
        <mxCell id="i_-GHyOLZH2gLH-0PidL-1" value="开始" style="rounded=1;whiteSpace=wrap;html=1;fontSize=16;" vertex="1" parent="1">
          <mxGeometry x="200" y="120" width="120" height="40" as="geometry" />
        </mxCell>
        <mxCell id="i_-GHyOLZH2gLH-0PidL-23" style="edgeStyle=orthogonalEdgeStyle;rounded=0;orthogonalLoop=1;jettySize=auto;html=1;fontSize=16;" edge="1" parent="1" source="i_-GHyOLZH2gLH-0PidL-2" target="i_-GHyOLZH2gLH-0PidL-3">
          <mxGeometry relative="1" as="geometry" />
        </mxCell>
        <mxCell id="i_-GHyOLZH2gLH-0PidL-2" value="排课相关的信息" style="rounded=0;whiteSpace=wrap;html=1;fontSize=16;" vertex="1" parent="1">
          <mxGeometry x="200" y="200" width="120" height="40" as="geometry" />
        </mxCell>
        <mxCell id="i_-GHyOLZH2gLH-0PidL-24" style="edgeStyle=orthogonalEdgeStyle;rounded=0;orthogonalLoop=1;jettySize=auto;html=1;fontSize=16;" edge="1" parent="1" source="i_-GHyOLZH2gLH-0PidL-3" target="i_-GHyOLZH2gLH-0PidL-4">
          <mxGeometry relative="1" as="geometry" />
        </mxCell>
        <mxCell id="i_-GHyOLZH2gLH-0PidL-3" value="数据处理" style="rounded=0;whiteSpace=wrap;html=1;fontSize=16;" vertex="1" parent="1">
          <mxGeometry x="200" y="280" width="120" height="40" as="geometry" />
        </mxCell>
        <mxCell id="i_-GHyOLZH2gLH-0PidL-25" style="edgeStyle=orthogonalEdgeStyle;rounded=0;orthogonalLoop=1;jettySize=auto;html=1;fontSize=16;" edge="1" parent="1" source="i_-GHyOLZH2gLH-0PidL-4" target="i_-GHyOLZH2gLH-0PidL-6">
          <mxGeometry relative="1" as="geometry" />
        </mxCell>
        <mxCell id="i_-GHyOLZH2gLH-0PidL-4" value="初始化种群`P(t)`" style="rounded=0;whiteSpace=wrap;html=1;fontSize=16;" vertex="1" parent="1">
          <mxGeometry x="200" y="360" width="120" height="40" as="geometry" />
        </mxCell>
        <mxCell id="i_-GHyOLZH2gLH-0PidL-9" style="edgeStyle=orthogonalEdgeStyle;rounded=0;orthogonalLoop=1;jettySize=auto;html=1;entryX=1;entryY=0.5;entryDx=0;entryDy=0;fontSize=16;" edge="1" parent="1" source="i_-GHyOLZH2gLH-0PidL-5" target="i_-GHyOLZH2gLH-0PidL-6">
          <mxGeometry relative="1" as="geometry" />
        </mxCell>
        <mxCell id="i_-GHyOLZH2gLH-0PidL-5" value="适应度函数" style="rounded=0;whiteSpace=wrap;html=1;fontSize=16;" vertex="1" parent="1">
          <mxGeometry x="400" y="440" width="120" height="40" as="geometry" />
        </mxCell>
        <mxCell id="i_-GHyOLZH2gLH-0PidL-26" style="edgeStyle=orthogonalEdgeStyle;rounded=0;orthogonalLoop=1;jettySize=auto;html=1;fontSize=16;" edge="1" parent="1" source="i_-GHyOLZH2gLH-0PidL-6" target="i_-GHyOLZH2gLH-0PidL-11">
          <mxGeometry relative="1" as="geometry" />
        </mxCell>
        <mxCell id="i_-GHyOLZH2gLH-0PidL-6" value="种群评价" style="rounded=0;whiteSpace=wrap;html=1;fontSize=16;" vertex="1" parent="1">
          <mxGeometry x="200" y="480" width="120" height="40" as="geometry" />
        </mxCell>
        <mxCell id="i_-GHyOLZH2gLH-0PidL-10" style="edgeStyle=orthogonalEdgeStyle;rounded=0;orthogonalLoop=1;jettySize=auto;html=1;entryX=1;entryY=0.5;entryDx=0;entryDy=0;fontSize=16;" edge="1" parent="1" source="i_-GHyOLZH2gLH-0PidL-8" target="i_-GHyOLZH2gLH-0PidL-6">
          <mxGeometry relative="1" as="geometry" />
        </mxCell>
        <mxCell id="i_-GHyOLZH2gLH-0PidL-8" value="调整适应度" style="rounded=0;whiteSpace=wrap;html=1;fontSize=16;" vertex="1" parent="1">
          <mxGeometry x="400" y="520" width="120" height="40" as="geometry" />
        </mxCell>
        <mxCell id="i_-GHyOLZH2gLH-0PidL-14" style="edgeStyle=orthogonalEdgeStyle;rounded=0;orthogonalLoop=1;jettySize=auto;html=1;exitX=0.5;exitY=1;exitDx=0;exitDy=0;fontSize=16;" edge="1" parent="1" source="i_-GHyOLZH2gLH-0PidL-11" target="i_-GHyOLZH2gLH-0PidL-13">
          <mxGeometry relative="1" as="geometry" />
        </mxCell>
        <mxCell id="i_-GHyOLZH2gLH-0PidL-27" style="edgeStyle=orthogonalEdgeStyle;rounded=0;orthogonalLoop=1;jettySize=auto;html=1;fontSize=16;" edge="1" parent="1" source="i_-GHyOLZH2gLH-0PidL-11" target="i_-GHyOLZH2gLH-0PidL-15">
          <mxGeometry relative="1" as="geometry" />
        </mxCell>
        <mxCell id="i_-GHyOLZH2gLH-0PidL-29" value="N" style="edgeLabel;html=1;align=center;verticalAlign=middle;resizable=0;points=[];fontSize=16;" vertex="1" connectable="0" parent="i_-GHyOLZH2gLH-0PidL-27">
          <mxGeometry x="-0.2667" y="4" relative="1" as="geometry">
            <mxPoint as="offset" />
          </mxGeometry>
        </mxCell>
        <mxCell id="i_-GHyOLZH2gLH-0PidL-11" value="迭代结束？" style="rhombus;whiteSpace=wrap;html=1;fontSize=16;" vertex="1" parent="1">
          <mxGeometry x="180" y="600" width="160" height="80" as="geometry" />
        </mxCell>
        <mxCell id="i_-GHyOLZH2gLH-0PidL-39" style="edgeStyle=orthogonalEdgeStyle;rounded=0;orthogonalLoop=1;jettySize=auto;html=1;fontSize=16;" edge="1" parent="1" source="i_-GHyOLZH2gLH-0PidL-13" target="i_-GHyOLZH2gLH-0PidL-28">
          <mxGeometry relative="1" as="geometry" />
        </mxCell>
        <mxCell id="i_-GHyOLZH2gLH-0PidL-13" value="算法结束" style="rounded=0;whiteSpace=wrap;html=1;fontSize=16;" vertex="1" parent="1">
          <mxGeometry x="200" y="720" width="120" height="40" as="geometry" />
        </mxCell>
        <mxCell id="i_-GHyOLZH2gLH-0PidL-31" style="edgeStyle=orthogonalEdgeStyle;rounded=0;orthogonalLoop=1;jettySize=auto;html=1;exitX=1;exitY=0.5;exitDx=0;exitDy=0;entryX=0;entryY=0.5;entryDx=0;entryDy=0;fontSize=16;" edge="1" parent="1" source="i_-GHyOLZH2gLH-0PidL-15" target="i_-GHyOLZH2gLH-0PidL-18">
          <mxGeometry relative="1" as="geometry" />
        </mxCell>
        <mxCell id="i_-GHyOLZH2gLH-0PidL-32" style="edgeStyle=orthogonalEdgeStyle;rounded=0;orthogonalLoop=1;jettySize=auto;html=1;entryX=0;entryY=0.5;entryDx=0;entryDy=0;fontSize=16;" edge="1" parent="1" source="i_-GHyOLZH2gLH-0PidL-15" target="i_-GHyOLZH2gLH-0PidL-17">
          <mxGeometry relative="1" as="geometry" />
        </mxCell>
        <mxCell id="i_-GHyOLZH2gLH-0PidL-34" style="edgeStyle=orthogonalEdgeStyle;rounded=0;orthogonalLoop=1;jettySize=auto;html=1;entryX=0;entryY=0.5;entryDx=0;entryDy=0;fontSize=16;" edge="1" parent="1" source="i_-GHyOLZH2gLH-0PidL-15" target="i_-GHyOLZH2gLH-0PidL-16">
          <mxGeometry relative="1" as="geometry" />
        </mxCell>
        <mxCell id="i_-GHyOLZH2gLH-0PidL-15" value="基因操作" style="rounded=0;whiteSpace=wrap;html=1;fontSize=16;" vertex="1" parent="1">
          <mxGeometry x="400" y="620" width="120" height="40" as="geometry" />
        </mxCell>
        <mxCell id="i_-GHyOLZH2gLH-0PidL-37" style="edgeStyle=orthogonalEdgeStyle;rounded=0;orthogonalLoop=1;jettySize=auto;html=1;entryX=0.5;entryY=1;entryDx=0;entryDy=0;fontSize=16;" edge="1" parent="1" source="i_-GHyOLZH2gLH-0PidL-16" target="i_-GHyOLZH2gLH-0PidL-21">
          <mxGeometry relative="1" as="geometry">
            <Array as="points">
              <mxPoint x="740" y="700" />
            </Array>
          </mxGeometry>
        </mxCell>
        <mxCell id="i_-GHyOLZH2gLH-0PidL-16" value="变异" style="rounded=0;whiteSpace=wrap;html=1;fontSize=16;" vertex="1" parent="1">
          <mxGeometry x="560" y="680" width="120" height="40" as="geometry" />
        </mxCell>
        <mxCell id="i_-GHyOLZH2gLH-0PidL-36" style="edgeStyle=orthogonalEdgeStyle;rounded=0;orthogonalLoop=1;jettySize=auto;html=1;entryX=0.5;entryY=1;entryDx=0;entryDy=0;fontSize=16;" edge="1" parent="1" source="i_-GHyOLZH2gLH-0PidL-17" target="i_-GHyOLZH2gLH-0PidL-21">
          <mxGeometry relative="1" as="geometry">
            <Array as="points">
              <mxPoint x="740" y="640" />
            </Array>
          </mxGeometry>
        </mxCell>
        <mxCell id="i_-GHyOLZH2gLH-0PidL-17" value="交叉" style="rounded=0;whiteSpace=wrap;html=1;fontSize=16;" vertex="1" parent="1">
          <mxGeometry x="560" y="620" width="120" height="40" as="geometry" />
        </mxCell>
        <mxCell id="i_-GHyOLZH2gLH-0PidL-35" style="edgeStyle=orthogonalEdgeStyle;rounded=0;orthogonalLoop=1;jettySize=auto;html=1;exitX=1;exitY=0.5;exitDx=0;exitDy=0;entryX=0.5;entryY=1;entryDx=0;entryDy=0;fontSize=16;" edge="1" parent="1" source="i_-GHyOLZH2gLH-0PidL-18" target="i_-GHyOLZH2gLH-0PidL-21">
          <mxGeometry relative="1" as="geometry" />
        </mxCell>
        <mxCell id="i_-GHyOLZH2gLH-0PidL-18" value="选择" style="rounded=0;whiteSpace=wrap;html=1;fontSize=16;" vertex="1" parent="1">
          <mxGeometry x="560" y="560" width="120" height="40" as="geometry" />
        </mxCell>
        <mxCell id="i_-GHyOLZH2gLH-0PidL-38" style="edgeStyle=orthogonalEdgeStyle;rounded=0;orthogonalLoop=1;jettySize=auto;html=1;exitX=0.5;exitY=0;exitDx=0;exitDy=0;fontSize=16;" edge="1" parent="1" source="i_-GHyOLZH2gLH-0PidL-21">
          <mxGeometry relative="1" as="geometry">
            <mxPoint x="260" y="410" as="targetPoint" />
            <mxPoint x="740" y="430" as="sourcePoint" />
            <Array as="points">
              <mxPoint x="740" y="410" />
              <mxPoint x="260" y="410" />
            </Array>
          </mxGeometry>
        </mxCell>
        <mxCell id="i_-GHyOLZH2gLH-0PidL-21" value="`P(t+1)\rightarrowP(t)`" style="rounded=0;whiteSpace=wrap;html=1;fontSize=16;" vertex="1" parent="1">
          <mxGeometry x="660" y="440" width="160" height="40" as="geometry" />
        </mxCell>
        <mxCell id="i_-GHyOLZH2gLH-0PidL-28" value="结束" style="rounded=1;whiteSpace=wrap;html=1;fontSize=16;" vertex="1" parent="1">
          <mxGeometry x="200" y="800" width="120" height="40" as="geometry" />
        </mxCell>
        <mxCell id="i_-GHyOLZH2gLH-0PidL-30" value="Y" style="text;html=1;align=center;verticalAlign=middle;resizable=0;points=[];autosize=1;strokeColor=none;fillColor=none;fontSize=16;" vertex="1" parent="1">
          <mxGeometry x="270" y="680" width="30" height="30" as="geometry" />
        </mxCell>
      </root>
    </mxGraphModel>
  </diagram>
</mxfile>
